:SAMPLES-PER-SECOND 30
:FRAME-RANGE 1-2091
:FULLY-SPECIFIED
:DEGREES
654
root  -59.0744 38.7595 -133.961 1.93849 21.27 0.444046
RightUpLeg  0.133462 -16.6569 -4.59585
RightLeg  16.5931 -15.3925 -1.48851
RightFoot  -16.0311 0.331512 10.7306
RightToes  5.82063e-011 0 -3.6325e-017
Spine  8.30538 1.29202 6.53352
Spine1  -1.0683 2.16287 -2.33171
HEad  -7.36701 54.4453 -11.7297
LeftShoulder1  1.00417 0.830366 -31.4923
LeftArm  10.7862 11.7041 -32.8022
LeftForeArm  4.46503 -13.085 -12.7249
LeftHand  0.402986 -1.87222 -6.29746
RightShoulder  8.69055 10.9948 52.4523
RightArm  22.3273 0.757058 18.1482
RightForeArm  19.7807 4.71352 16.4802
RightHand  0.160789 3.76528 1.77841
LeftUpLeg  -14.4041 11.0818 14.5728
LeftLeg  8.18955 -1.7554 0.0927428
LeftFoot  -0.881705 0.909092 -9.85767
LeftToes  -6.27584e-011 -2.25241e-010 2.80627e-011
655
root  -59.6451 38.8682 -133.708 2.06058 19.381 1.00763
RightUpLeg  0.646876 -12.6244 -4.00496
RightLeg  15.1134 -17.964 -0.87322
RightFoot  -15.7721 0.266296 9.63518
RightToes  5.82063e-011 0 -3.6325e-017
Spine  8.65736 1.59334 7.68816
Spine1  -1.66274 2.73061 -3.44008
HEad  -6.65547 53.6302 -11.5595
LeftShoulder1  0.978895 0.926145 -31.9069
LeftArm  11.9295 11.7634 -33.177
LeftForeArm  4.2329 -13.6775 -12.3542
LeftHand  0.480562 -1.96444 -7.434
RightShoulder  8.91374 11.5389 51.8674
RightArm  22.4096 -0.694336 18.8292
RightForeArm  18.0334 5.71146 16.163
RightHand  0.149622 3.57329 1.68577
LeftUpLeg  -16.096 9.83982 12.1319
LeftLeg  11.6829 -4.32706 -0.763774
LeftFoot  -2.00907 0.913115 -11.0152
LeftToes  -6.27584e-011 -2.25241e-010 2.80627e-011
656
root  -60.1457 38.9764 -133.438 2.40016 17.2318 1.75905
RightUpLeg  1.04517 -10.277 -3.69347
RightLeg  13.5241 -18.5388 -0.422759
RightFoot  -15.4403 0.201853 8.55829
RightToes  5.82063e-011 0 -3.6325e-017
Spine  8.7685 1.96758 8.73216
Spine1  -1.97077 3.40884 -4.93417
HEad  -6.15411 52.6874 -11.6635
LeftShoulder1  0.960398 0.978362 -31.9588
LeftArm  12.9379 12.3407 -33.8096
LeftForeArm  2.41776 -14.6257 -11.7468
LeftHand  0.527088 -2.03745 -8.08018
RightShoulder  8.53979 10.8391 52.1128
RightArm  25.4063 -0.128234 18.4204
RightForeArm  15.787 6.4795 16.1614
RightHand  0.172768 3.7055 1.94715
LeftUpLeg  -17.8443 9.76722 8.678
LeftLeg  14.7554 -2.06304 -0.317289
LeftFoot  -2.46575 0.815131 -10.293
LeftToes  -6.27584e-011 -2.25241e-010 2.80627e-011
657
root  -60.5804 39.0607 -133.15 2.64127 15.4266 2.40656
RightUpLeg  1.57755 -9.28014 -3.53059
RightLeg  12.1485 -18.0102 -0.0482825
RightFoot  -15.2551 0.166434 7.89281
RightToes  5.82063e-011 0 -3.6325e-017
Spine  8.58471 2.32731 9.39846
Spine1  -1.75713 3.96923 -5.95376
HEad  -6.23535 51.6066 -12.3348
LeftShoulder1  0.962815 0.977825 -32.0465
LeftArm  12.7304 12.8575 -34.7434
LeftForeArm  2.04626 -15.026 -11.4115
LeftHand  0.479763 -1.65469 -7.77898
RightShoulder  8.50048 11.0177 51.2544
RightArm  27.0222 -0.379371 18.4825
RightForeArm  14.5593 7.18145 16.0048
RightHand  0.174548 3.43174 2.05113
LeftUpLeg  -19.4948 10.2152 4.67666
LeftLeg  16.9977 1.24727 0.749028
LeftFoot  -2.6367 0.740554 -9.50775
LeftToes  -6.27584e-011 -2.25241e-010 2.80627e-011
658
root  -60.9812 39.129 -132.841 2.85794 13.6908 3.00545
RightUpLeg  2.11428 -8.87849 -3.48853
RightLeg  10.9691 -16.8728 0.336967
RightFoot  -15.1402 0.134772 7.15543
RightToes  5.82063e-011 0 -3.6325e-017
Spine  8.70724 2.44977 9.81399
Spine1  -1.98326 4.28632 -7.06855
HEad  -6.13367 51.0717 -12.5765
LeftShoulder1  0.948861 0.999285 -31.8154
LeftArm  12.4987 13.6755 -35.2965
LeftForeArm  2.42533 -15.1173 -11.3066
LeftHand  0.488328 -2.00833 -7.50744
RightShoulder  8.86423 11.8364 50.6011
RightArm  26.4688 -0.786361 18.2337
RightForeArm  16.8635 6.34252 16.2606
RightHand  0.102801 3.78498 1.03983
LeftUpLeg  -20.6765 11.2911 0.475386
LeftLeg  18.0121 2.29607 1.15683
LeftFoot  -3.57322 0.692845 -9.87249
LeftToes  -6.27584e-011 -2.25241e-010 2.80627e-011
659
root  -61.3732 39.1712 -132.494 2.89101 11.8788 3.36815
RightUpLeg  2.77764 -8.5197 -3.28511
RightLeg  9.99135 -15.5991 0.682304
RightFoot  -15.1516 0.110339 6.40284
RightToes  5.82063e-011 0 -3.6325e-017
Spine  8.7505 2.62153 9.52363
Spine1  -1.9307 4.46006 -7.15749
HEad  -5.58095 50.0958 -12.3084
LeftShoulder1  0.922613 1.0842 -32.0589
LeftArm  13.3281 14.3783 -35.2982
LeftForeArm  1.81529 -15.4167 -11.1331
LeftHand  0.439676 -1.87671 -6.87944
RightShoulder  9.13425 12.5025 49.974
RightArm  26.4725 -0.416861 17.6472
RightForeArm  17.7515 5.4759 16.6387
RightHand  0.0897346 3.61888 0.902457
LeftUpLeg  -21.3302 12.9909 -3.77279
LeftLeg  17.5664 2.72155 1.28847
LeftFoot  -3.92887 0.635508 -9.43284
LeftToes  -6.27584e-011 -2.25241e-010 2.80627e-011
660
root  -61.7737 39.1755 -132.081 2.70357 9.83945 3.36096
RightUpLeg  3.63448 -7.67398 -2.53086
RightLeg  9.12338 -14.6342 0.676185
RightFoot  -15.2436 0.0953843 5.83147
RightToes  5.82063e-011 0 -3.6325e-017
Spine  8.70599 2.80913 9.31892
Spine1  -1.75233 4.69737 -7.37018
HEad  -5.09826 49.591 -11.6685
LeftShoulder1  0.890865 1.14556 -31.7034
LeftArm  12.9963 15.0263 -35.281
LeftForeArm  2.16119 -15.0737 -11.394
LeftHand  0.426326 -1.56607 -6.99552
RightShoulder  9.02769 12.2413 50.2105
RightArm  26.2479 1.47849 16.6708
RightForeArm  18.3313 3.6804 17.3392
RightHand  0.0793315 3.44148 0.796674
LeftUpLeg  -21.3898 15.4545 -7.52471
LeftLeg  15.9595 2.47825 0.952395
LeftFoot  -4.28026 0.603515 -9.35205
LeftToes  -6.27584e-011 -2.25241e-010 2.80627e-011
